<?xml version="1.0" encoding="utf-8"?>
<svg version="1.1" xmlns="http://www.w3.org/2000/svg" width="400px" height="400px" viewBox="0 0 400 400">
  <style type="text/css">
    #icon {fill:#015C95;}
    #text {fill:#889E97;}
  </style>
  <g id="logo">
    <g id="icon">
      <path d="M200 21.5c-63.8 0-115.6 51.8-115.6 115.8 0 47.5 28.6 88.3 69.5 106.1l1.5-29.2c0-23.2-17.2-15.8-17.2-32.1 0-9.1 0.3-28.1 0.3-42.4 0-38 16.1-74.8 20.1-83 4-8.2 13.3-17.1 13.4-8.5 0 12.5 0.5 157.6 0.5 157.6h0l1.8 44.2c8.3 1.9 16.8 3 25.7 3 4.8 0 9.6-0.4 14.3-1l3.8-74.2c-9.4-2.1-17.5-8.1-22.5-15.6 -6.3-9.4 4.8-92.3 4.8-92.3h7.2v77.9h7.1V69.9h7.8v77.9h7.1V69.9h8.1v77.9h7.1V69.9h5.5c0 0 11.1 83 4.8 92.3 -5 7.5-13 13.5-22.3 15.6 -0.2 0.1-0.3 0.1-0.3 0.1l3.6 69.2c46.1-15.2 79.4-58.6 79.4-109.9C315.6 73.3 263.8 21.5 200 21.5z"/>
      <path d="M200 0C124.4 0 62.9 61.6 62.9 137.3c0 75.7 61.5 137.3 137.1 137.3 75.6 0 137-61.6 137-137.3C337.1 61.6 275.6 0 200 0zM200 264.3c-69.9 0-126.8-57-126.8-127 0-70 56.9-127 126.8-127 69.9 0 126.8 57 126.8 127C326.9 207.3 269.9 264.3 200 264.3z"/>
    </g>
    <g id="text">
      <path d="M33.5 357.2c0-2-0.7-3.6-2.2-4.8 -1.5-1.2-3.3-2.4-5.5-3.4 -2.2-1-4.6-2.1-7.1-3.2 -2.6-1.1-4.9-2.4-7.1-4 -2.2-1.6-4-3.5-5.5-5.9 -1.5-2.4-2.2-5.4-2.2-9 0-3.2 0.5-5.9 1.6-8.2 1-2.3 2.5-4.3 4.5-5.8 1.9-1.5 4.2-2.7 6.9-3.4 2.7-0.7 5.6-1.1 8.9-1.1 3.8 0 7.3 0.3 10.7 1 3.3 0.6 6.1 1.6 8.2 2.8l-4 10.7c-1.4-0.9-3.4-1.7-6.1-2.4 -2.7-0.7-5.7-1.1-8.8-1.1 -3 0-5.2 0.6-6.8 1.8 -1.6 1.2-2.4 2.8-2.4 4.7 0 1.9 0.7 3.4 2.2 4.6 1.5 1.2 3.3 2.4 5.5 3.4 2.2 1.1 4.6 2.1 7.1 3.2 2.6 1.1 4.9 2.5 7.1 4 2.2 1.6 4 3.5 5.5 5.8 1.5 2.3 2.2 5.2 2.2 8.7 0 3.5-0.6 6.5-1.7 9 -1.1 2.5-2.7 4.6-4.8 6.3 -2.1 1.7-4.6 2.9-7.5 3.7 -2.9 0.8-6.2 1.2-9.7 1.2 -4.6 0-8.7-0.4-12.2-1.3s-6.1-1.7-7.8-2.6l4.1-10.9c0.7 0.4 1.6 0.8 2.6 1.2 1.1 0.4 2.3 0.8 3.7 1.2 1.4 0.4 2.8 0.7 4.3 0.9 1.5 0.2 3.1 0.4 4.7 0.4 3.8 0 6.7-0.6 8.7-1.9C32.5 361.8 33.5 359.8 33.5 357.2z"/>
      <path d="M50.9 315.2c0-1.8 0.7-3.3 2-4.6 1.3-1.3 3.2-1.9 5.5-1.9 2.3 0 4.2 0.6 5.7 1.9 1.5 1.3 2.2 2.8 2.2 4.6 0 1.8-0.7 3.3-2.2 4.5 -1.5 1.2-3.4 1.8-5.7 1.8 -2.3 0-4.2-0.6-5.5-1.8C51.5 318.5 50.9 317 50.9 315.2zM52.6 328.3h12v46.4h-12V328.3z"/>
      <path d="M86.9 359.1c0 2.2 0.3 3.7 0.8 4.7 0.6 1 1.5 1.5 2.7 1.5 0.7 0 1.5-0.1 2.2-0.2 0.7-0.1 1.6-0.4 2.6-0.8l1.3 9.5c-1 0.5-2.5 1-4.5 1.5 -2 0.5-4.1 0.7-6.3 0.7 -3.5 0-6.2-0.8-8.1-2.5 -1.9-1.6-2.8-4.3-2.8-8.1v-55.7h12V359.1z"/>
      <path d="M115.7 352.6l1.6 7.1h0.5l1.3-7.3 7.9-24.1h13l-19.4 46.9h-7.3l-20.1-46.9h14L115.7 352.6z"/>
      <path d="M179.3 370.7c-1.9 1.5-4.4 2.7-7.6 3.8 -3.2 1-6.6 1.5-10.1 1.5 -7.5 0-12.9-2.2-16.4-6.5 -3.5-4.4-5.2-10.3-5.2-18 0-8.2 1.9-14.3 5.8-18.4s9.4-6.1 16.4-6.1c2.3 0 4.6 0.3 6.9 0.9 2.2 0.6 4.2 1.6 5.9 3.1 1.7 1.4 3.1 3.3 4.2 5.8 1 2.4 1.6 5.4 1.6 9 0 1.3-0.1 2.7-0.2 4.2 -0.2 1.5-0.4 3-0.7 4.6h-27.8c0.2 3.9 1.2 6.8 3 8.8 1.8 2 4.8 3 8.8 3 2.5 0 4.8-0.4 6.8-1.2 2-0.8 3.5-1.6 4.6-2.4L179.3 370.7zM162.1 336.6c-3.2 0-5.5 0.9-7 2.8 -1.5 1.9-2.4 4.4-2.7 7.6h17.2c0.2-3.3-0.3-5.9-1.5-7.7C166.8 337.5 164.8 336.6 162.1 336.6z"/>
      <path d="M213.9 339.6c-1.9-0.7-3.6-1-5.2-1 -2.2 0-4 0.6-5.4 1.7 -1.5 1.1-2.4 2.6-2.9 4.4v30h-12v-46.4h9.4l1.4 6.1h0.4c1-2.3 2.5-4.1 4.3-5.3 1.8-1.2 3.9-1.9 6.3-1.9 1.6 0 3.4 0.3 5.5 1L213.9 339.6z"/>
      <path d="M237.6 353.2l1.5 10.8h0.1l1.6-11 13.3-43.3h3.7l13.4 43.5 1.6 10.8h0.1l1.7-11 10.9-43.3h7.4l-18.1 66h-4.3l-13.2-43.5 -1.7-9.8h-0.5l-1.7 9.9 -13.2 43.4h-4.3l-18.5-66h8.2L237.6 353.2z"/>
      <path d="M293.5 331.7c2.3-1.4 5.1-2.5 8.2-3.2 3.1-0.7 6.4-1 9.8-1 3.2 0 5.8 0.4 7.7 1.3 1.9 0.9 3.4 2 4.4 3.4 1 1.4 1.7 2.9 2 4.6 0.3 1.7 0.5 3.3 0.5 5 0 3.7-0.1 7.3-0.3 10.9 -0.2 3.5-0.3 6.9-0.3 10 0 2.3 0.1 4.5 0.3 6.5 0.2 2 0.5 3.9 1 5.7h-5.5l-1.9-6.5h-0.5c-0.6 0.9-1.3 1.7-2.1 2.6 -0.8 0.8-1.8 1.6-3 2.2 -1.2 0.6-2.5 1.2-4.1 1.6 -1.5 0.4-3.3 0.6-5.3 0.6 -2 0-3.8-0.3-5.5-0.9 -1.7-0.6-3.2-1.5-4.4-2.6 -1.2-1.1-2.2-2.5-2.9-4.1 -0.7-1.6-1.1-3.4-1.1-5.5 0-2.7 0.6-5 1.7-6.8 1.1-1.8 2.7-3.3 4.7-4.4 2-1.1 4.4-1.9 7.2-2.3 2.8-0.5 5.9-0.7 9.3-0.7 0.9 0 1.7 0 2.5 0s1.7 0.1 2.5 0.2c0.2-1.9 0.3-3.5 0.3-5 0-3.4-0.7-5.8-2-7.1 -1.4-1.4-3.8-2-7.4-2 -1.1 0-2.2 0.1-3.4 0.2 -1.2 0.2-2.4 0.4-3.7 0.7 -1.3 0.3-2.5 0.6-3.6 1 -1.1 0.4-2.1 0.9-3 1.4L293.5 331.7zM306.7 368.9c1.7 0 3.3-0.2 4.6-0.7 1.4-0.5 2.5-1.1 3.5-1.8 1-0.7 1.8-1.5 2.5-2.4 0.6-0.9 1.1-1.7 1.4-2.5v-7.7c-0.9-0.1-1.7-0.1-2.6-0.1 -0.9 0-1.8 0-2.6 0 -1.9 0-3.8 0.1-5.6 0.3 -1.8 0.2-3.4 0.6-4.8 1.2 -1.4 0.6-2.5 1.4-3.3 2.4 -0.8 1-1.3 2.3-1.3 3.9 0 2.2 0.8 3.9 2.3 5.3C302.3 368.2 304.3 368.9 306.7 368.9z"/>
      <path d="M356.5 335.4c-1.9-0.6-3.6-0.9-5.3-0.9 -2.7 0-4.8 0.7-6.3 2.2 -1.5 1.5-2.5 3.3-2.9 5.5v32.5h-7.4v-46.4h5.2l1.4 5.7h0.4c1.2-2.1 2.6-3.7 4.2-4.9 1.6-1.1 3.7-1.7 6.3-1.7 1.8 0 3.8 0.3 6 0.9L356.5 335.4z"/>
      <path d="M396.9 371c-1.9 1.5-4.2 2.7-7 3.5 -2.8 0.9-5.8 1.3-8.9 1.3 -3.5 0-6.6-0.6-9.2-1.7 -2.6-1.1-4.7-2.8-6.4-4.9s-2.9-4.7-3.7-7.7c-0.8-3-1.2-6.3-1.2-10 0-7.9 1.8-14 5.3-18.1 3.5-4.1 8.6-6.2 15.1-6.2 2.1 0 4.2 0.2 6.3 0.7 2.1 0.5 4 1.3 5.7 2.6s3 3.1 4.1 5.5c1 2.4 1.6 5.5 1.6 9.4 0 2-0.2 4.3-0.6 6.8h-29.7c0 2.7 0.3 5.1 0.8 7.2 0.6 2.1 1.4 3.9 2.6 5.3 1.2 1.5 2.7 2.6 4.6 3.3 1.9 0.8 4.2 1.2 6.9 1.2 2.1 0 4.2-0.4 6.3-1.1 2.1-0.7 3.7-1.6 4.7-2.6L396.9 371zM381 333.6c-3.6 0-6.6 1-8.8 2.9 -2.2 1.9-3.5 5.2-3.9 9.8h23c0-4.7-0.9-8-2.7-9.9C386.8 334.6 384.3 333.6 381 333.6z"/>
    </g>
  </g>
</svg>
